<svg width="23" height="23" viewBox="0 0 23 23" fill="none" xmlns="http://www.w3.org/2000/svg">
<path d="M19.6801 12.278H17.9014C18.0827 12.7744 18.1817 13.3101 18.1817 13.8684V20.591C18.1817 20.8238 18.1412 21.0472 18.0675 21.255H21.0081C22.1066 21.255 23.0002 20.3613 23.0002 19.2629V15.5981C23.0003 13.7674 21.5108 12.278 19.6801 12.278Z" fill="#F6F7FB"/>
<path d="M4.81855 13.8685C4.81855 13.3101 4.91761 12.7745 5.09891 12.2781H3.32018C1.48943 12.2781 0 13.7675 0 15.5983V19.2631C0 20.3615 0.893633 21.2552 1.99211 21.2552H4.93279C4.85907 21.0473 4.81855 20.8239 4.81855 20.5911V13.8685Z" fill="#F6F7FB"/>
<path d="M13.5331 10.5484H9.46667C7.63592 10.5484 6.14648 12.0378 6.14648 13.8686V20.5912C6.14648 20.9579 6.44378 21.2552 6.81052 21.2552H16.1892C16.556 21.2552 16.8533 20.9579 16.8533 20.5912V13.8686C16.8533 12.0378 15.3638 10.5484 13.5331 10.5484Z" fill="#F6F7FB"/>
<path d="M11.5003 1.74481C9.29854 1.74481 7.50732 3.53603 7.50732 5.73779C7.50732 7.23122 8.3316 8.53553 9.54889 9.22032C10.1263 9.54511 10.7919 9.73073 11.5003 9.73073C12.2086 9.73073 12.8742 9.54511 13.4516 9.22032C14.669 8.53553 15.4932 7.23118 15.4932 5.73779C15.4932 3.53608 13.702 1.74481 11.5003 1.74481Z" fill="#F6F7FB"/>
<path d="M4.48863 5.46655C2.84201 5.46655 1.50244 6.80613 1.50244 8.45274C1.50244 10.0994 2.84201 11.4389 4.48863 11.4389C4.90631 11.4389 5.30405 11.3524 5.66536 11.1969C6.29004 10.9279 6.80512 10.4519 7.12384 9.85552C7.34755 9.43698 7.47482 8.9595 7.47482 8.45274C7.47482 6.80617 6.13524 5.46655 4.48863 5.46655Z" fill="#F6F7FB"/>
<path d="M18.5116 5.46655C16.865 5.46655 15.5254 6.80613 15.5254 8.45274C15.5254 8.95955 15.6527 9.43703 15.8764 9.85552C16.1951 10.4519 16.7102 10.928 17.3348 11.1969C17.6962 11.3524 18.0939 11.4389 18.5116 11.4389C20.1582 11.4389 21.4978 10.0994 21.4978 8.45274C21.4978 6.80613 20.1582 5.46655 18.5116 5.46655Z" fill="#F6F7FB"/>
</svg>
