<svg width="22" height="20" viewBox="0 0 22 20" fill="none" xmlns="http://www.w3.org/2000/svg">
<path d="M20.1665 3.25016H15.583V2.33343C15.583 1.32228 14.7608 0.5 13.7496 0.5H8.24937C7.23823 0.5 6.41595 1.32224 6.41595 2.33343V3.25012H1.83245C0.821265 3.25016 -0.000976562 4.0724 -0.000976562 5.08354V7.83366C-0.000976562 8.84484 0.821265 9.66709 1.83245 9.66709H9.16611V9.20872C9.16611 8.95536 9.37112 8.75035 9.62448 8.75035H12.3746C12.6279 8.75035 12.833 8.95536 12.833 9.20872V9.66709H20.1666C21.1777 9.66709 22 8.84484 22 7.83366V5.08354C22 4.0724 21.1777 3.25016 20.1665 3.25016ZM13.7496 3.25016H8.24937V2.33343H13.7496V3.25016Z" fill="#F6F7FB"/>
<path d="M21.7457 10.495C21.5895 10.4176 21.4028 10.4355 21.2649 10.5402C20.9391 10.7869 20.5595 10.9171 20.1665 10.9171H12.8329V12.2922C12.8329 12.5455 12.6279 12.7506 12.3745 12.7506H9.62443C9.37108 12.7506 9.16607 12.5455 9.16607 12.2922V10.9171H1.83245C1.43944 10.9171 1.05988 10.7869 0.733992 10.5402C0.59567 10.4346 0.409478 10.4167 0.253237 10.495C0.097512 10.5725 -0.000976562 10.7314 -0.000976562 10.9055V17.3341C-0.000976562 18.3452 0.821265 19.1675 1.83245 19.1675H20.1666C21.1777 19.1675 22 18.3453 22 17.3341V10.9055C22 10.7314 21.9015 10.5725 21.7457 10.495Z" fill="#F6F7FB"/>
</svg>
