<svg width="53" height="53" viewBox="0 0 53 53" fill="none" xmlns="http://www.w3.org/2000/svg">
<circle cx="26.631" cy="26.7623" r="25.7941" fill="white"/>
<rect x="19.1494" y="12.4321" width="14.8943" height="10.6388" rx="1" fill="#FF733F"/>
<path d="M39.8573 30.9764H37.1018V26.5177C37.1018 26.3995 37.0549 26.2861 36.9713 26.2024C36.8876 26.1188 36.7742 26.0718 36.656 26.0718H27.2927V22.059H30.8597C30.9779 22.059 31.0913 22.012 31.1749 21.9284C31.2586 21.8448 31.3055 21.7314 31.3055 21.6131V13.5875C31.3055 13.4692 31.2586 13.3558 31.1749 13.2722C31.0913 13.1886 30.9779 13.1416 30.8597 13.1416H22.834C22.7157 13.1416 22.6023 13.1886 22.5187 13.2722C22.4351 13.3558 22.3881 13.4692 22.3881 13.5875V21.6131C22.3881 21.7314 22.4351 21.8448 22.5187 21.9284C22.6023 22.012 22.7157 22.059 22.834 22.059H26.401V26.0718H17.4835C17.3653 26.0718 17.2519 26.1188 17.1683 26.2024C17.0846 26.2861 17.0377 26.3995 17.0377 26.5177V30.9764H13.9166C13.7983 30.9764 13.6849 31.0234 13.6013 31.107C13.5177 31.1906 13.4707 31.304 13.4707 31.4223V39.448C13.4707 39.5662 13.5177 39.6796 13.6013 39.7632C13.6849 39.8469 13.7983 39.8938 13.9166 39.8938H21.9422C22.0605 39.8938 22.1739 39.8469 22.2575 39.7632C22.3411 39.6796 22.3881 39.5662 22.3881 39.448V31.4223C22.3881 31.304 22.3411 31.1906 22.2575 31.107C22.1739 31.0234 22.0605 30.9764 21.9422 30.9764H17.9294V26.9636H36.2101V30.9764H31.8317C31.7134 30.9764 31.6 31.0234 31.5164 31.107C31.4328 31.1906 31.3858 31.304 31.3858 31.4223V39.448C31.3858 39.5662 31.4328 39.6796 31.5164 39.7632C31.6 39.8469 31.7134 39.8938 31.8317 39.8938H39.8573C39.9756 39.8938 40.089 39.8469 40.1726 39.7632C40.2562 39.6796 40.3032 39.5662 40.3032 39.448V31.4223C40.3032 31.304 40.2562 31.1906 40.1726 31.107C40.089 31.0234 39.9756 30.9764 39.8573 30.9764ZM23.2799 14.0333H30.4138V21.1673H23.2799V14.0333ZM21.4964 39.0021H14.3624V31.8682H21.4964V39.0021ZM39.4115 39.0021H32.2775V31.8682H39.4115V39.0021Z" fill="#FF733F"/>
<path fill-rule="evenodd" clip-rule="evenodd" d="M37.4574 30.621H39.8574C40.0699 30.621 40.2738 30.7054 40.424 30.8557C40.5743 31.006 40.6588 31.2098 40.6588 31.4223V39.448C40.6588 39.6606 40.5743 39.8644 40.424 40.0147C40.2738 40.165 40.0699 40.2494 39.8574 40.2494H31.8317C31.6192 40.2494 31.4153 40.165 31.265 40.0147C31.1147 39.8644 31.0303 39.6606 31.0303 39.448V31.4223C31.0303 31.2098 31.1147 31.006 31.265 30.8557C31.4153 30.7054 31.6192 30.621 31.8317 30.621H35.8546V27.3191H18.285V30.621H21.9423C22.1548 30.621 22.3587 30.7054 22.509 30.8557C22.6592 31.006 22.7437 31.2098 22.7437 31.4223V39.448C22.7437 39.6606 22.6592 39.8644 22.509 40.0147C22.3587 40.165 22.1548 40.2494 21.9423 40.2494H13.9166C13.7041 40.2494 13.5002 40.165 13.35 40.0147C13.1997 39.8644 13.1152 39.6606 13.1152 39.448V31.4223C13.1152 31.2098 13.1997 31.006 13.35 30.8557C13.5002 30.7054 13.7041 30.621 13.9166 30.621H16.6822V26.5178C16.6822 26.3052 16.7666 26.1014 16.9169 25.9511C17.0672 25.8008 17.271 25.7164 17.4836 25.7164H26.0455V22.4146H22.834C22.6215 22.4146 22.4177 22.3301 22.2674 22.1799C22.1171 22.0296 22.0326 21.8257 22.0326 21.6132V13.5875C22.0326 13.375 22.1171 13.1711 22.2674 13.0209C22.4177 12.8706 22.6215 12.7861 22.834 12.7861H30.8597C31.0722 12.7861 31.2761 12.8706 31.4264 13.0209C31.5767 13.1711 31.6611 13.375 31.6611 13.5875V21.6132C31.6611 21.8257 31.5767 22.0296 31.4264 22.1799C31.2761 22.3301 31.0722 22.4146 30.8597 22.4146H27.6483V25.7164H36.656C36.8686 25.7164 37.0724 25.8008 37.2227 25.9511C37.373 26.1014 37.4574 26.3052 37.4574 26.5178V30.621ZM30.0583 14.3889H23.6354V20.8118H30.0583V14.3889ZM14.718 38.6466V32.2237H21.1409V38.6466H14.718ZM32.6331 38.6466H39.056V32.2237H32.6331V38.6466ZM39.8574 30.9765C39.9756 30.9765 40.089 31.0234 40.1727 31.1071C40.2563 31.1907 40.3032 31.3041 40.3032 31.4223V39.448C40.3032 39.5663 40.2563 39.6797 40.1727 39.7633C40.089 39.8469 39.9756 39.8939 39.8574 39.8939H31.8317C31.7135 39.8939 31.6 39.8469 31.5164 39.7633C31.4328 39.6797 31.3858 39.5663 31.3858 39.448V31.4223C31.3858 31.3041 31.4328 31.1907 31.5164 31.1071C31.6 31.0234 31.7135 30.9765 31.8317 30.9765H36.2102V26.9636H17.9295V30.9765H21.9423C22.0605 30.9765 22.174 31.0234 22.2576 31.1071C22.3412 31.1907 22.3882 31.3041 22.3882 31.4223V39.448C22.3882 39.5663 22.3412 39.6797 22.2576 39.7633C22.174 39.8469 22.0605 39.8939 21.9423 39.8939H13.9166C13.7984 39.8939 13.685 39.8469 13.6013 39.7633C13.5177 39.6797 13.4707 39.5663 13.4707 39.448V31.4223C13.4707 31.3041 13.5177 31.1907 13.6013 31.1071C13.685 31.0234 13.7984 30.9765 13.9166 30.9765H17.0377V26.5178C17.0377 26.3995 17.0847 26.2861 17.1683 26.2025C17.2519 26.1189 17.3653 26.0719 17.4836 26.0719H26.401V22.0591H22.834C22.7158 22.0591 22.6024 22.0121 22.5188 21.9285C22.4351 21.8449 22.3882 21.7314 22.3882 21.6132V13.5875C22.3882 13.4693 22.4351 13.3559 22.5188 13.2722C22.6024 13.1886 22.7158 13.1416 22.834 13.1416H30.8597C30.978 13.1416 31.0914 13.1886 31.175 13.2722C31.2586 13.3559 31.3056 13.4693 31.3056 13.5875V21.6132C31.3056 21.7314 31.2586 21.8449 31.175 21.9285C31.0914 22.0121 30.978 22.0591 30.8597 22.0591H27.2927V26.0719H36.656C36.7743 26.0719 36.8877 26.1189 36.9713 26.2025C37.0549 26.2861 37.1019 26.3995 37.1019 26.5178V30.9765H39.8574ZM23.2799 14.0334V21.1673H30.4138V14.0334H23.2799ZM21.4964 39.0021V31.8682H14.3625V39.0021H21.4964ZM39.4115 39.0021V31.8682H32.2776V39.0021H39.4115Z" fill="#FF733F"/>
<path d="M23.4269 20.7929H24.9485L26.5412 15.5029H25.2471L24.6499 17.9132C24.5005 18.4821 24.3868 19.0296 24.2375 19.6055H24.2019C24.0455 19.0296 23.9459 18.4821 23.7895 17.9132L23.1851 15.5029H21.8413L23.4269 20.7929Z" fill="white"/>
<path d="M29.0003 20.8924C30.2802 20.8924 31.0197 20.1174 31.0197 19.2358C31.0197 18.4892 30.6286 18.0483 29.9745 17.7853L29.3132 17.5222C28.8439 17.3373 28.5097 17.2235 28.5097 16.932C28.5097 16.6476 28.7515 16.4912 29.1425 16.4912C29.5549 16.4912 29.882 16.6334 30.2304 16.8965L30.8632 16.1001C30.4011 15.638 29.754 15.4033 29.1425 15.4033C28.0191 15.4033 27.2228 16.1143 27.2228 17.0031C27.2228 17.771 27.7418 18.2332 28.2964 18.4536L28.9719 18.738C29.427 18.93 29.7185 19.0296 29.7185 19.3353C29.7185 19.6197 29.4981 19.7975 29.0288 19.7975C28.6093 19.7975 28.1187 19.577 27.7418 19.2571L27.0237 20.1316C27.5712 20.6365 28.3106 20.8924 29.0003 20.8924Z" fill="white"/>
<path d="M14.1841 31.582H21.9859V39.3838H14.1841V31.582Z" fill="#FF733F"/>
<path d="M31.9155 31.582H39.7173V39.3838H31.9155V31.582Z" fill="#FF733F"/>
</svg>
