<svg width="54" height="53" viewBox="0 0 54 53" fill="none" xmlns="http://www.w3.org/2000/svg">
<circle cx="26.8588" cy="26.7943" r="26.1903" fill="white"/>
<path d="M27.0122 9.72998C26.6289 9.72998 26.3182 10.0407 26.3182 10.4239V13.1997C26.3182 13.5829 26.6289 13.8936 27.0122 13.8936C27.3954 13.8936 27.7061 13.5829 27.7061 13.1997V10.4239C27.7061 10.0407 27.3954 9.72998 27.0122 9.72998ZM17.1995 13.796C17.0218 13.796 16.847 13.8665 16.7115 14.002C16.4405 14.273 16.4405 14.7069 16.7115 14.9779L18.6741 16.9404C18.945 17.2114 19.3789 17.2114 19.6499 16.9404C19.9209 16.6695 19.9209 16.2356 19.6499 15.9646L17.6874 14.002C17.5519 13.8665 17.377 13.796 17.1995 13.796ZM36.8249 13.796C36.6473 13.796 36.4725 13.8665 36.337 14.002L34.3744 15.9646C34.1034 16.2356 34.1034 16.6695 34.3744 16.9404C34.6454 17.2114 35.0793 17.2114 35.3503 16.9404L37.3128 14.9779C37.5838 14.7069 37.5838 14.273 37.3128 14.002C37.1773 13.8665 37.0025 13.796 36.8249 13.796ZM27.0122 15.9754C22.7808 15.9754 18.6849 19.2583 18.6849 23.9015C18.6849 29.9262 23.1955 31.1879 23.1955 35.4057H30.8288C30.8288 31.1879 35.3394 29.9262 35.3394 23.9015C35.3394 19.2583 31.2435 15.9754 27.0122 15.9754ZM24.8762 18.0789C24.8797 18.0789 24.8833 18.0789 24.8869 18.0789C24.905 18.0782 24.923 18.0782 24.9411 18.0789C25.1036 18.0797 25.2606 18.1374 25.3849 18.2421C25.5092 18.3468 25.5928 18.4917 25.6212 18.6517C25.6495 18.8116 25.6209 18.9765 25.5402 19.1175C25.4596 19.2586 25.332 19.3668 25.1797 19.4234C23.4888 20.061 22.2182 21.5582 21.8943 23.3811C21.8612 23.5622 21.7575 23.7229 21.606 23.8276C21.4546 23.9323 21.2677 23.9725 21.0865 23.9395C20.9053 23.9064 20.7447 23.8027 20.64 23.6512C20.5353 23.4997 20.495 23.3128 20.5281 23.1317C20.9382 20.8239 22.5363 18.9419 24.6809 18.1331C24.7429 18.1056 24.8087 18.0874 24.8761 18.0789H24.8762ZM13.1334 23.6088C12.7501 23.6088 12.4395 23.9194 12.4395 24.3027C12.4395 24.686 12.7501 24.9966 13.1334 24.9966H15.9091C16.2924 24.9966 16.6031 24.686 16.6031 24.3027C16.6031 23.9194 16.2924 23.6088 15.9091 23.6088H13.1334ZM38.1152 23.6088C37.7319 23.6088 37.4213 23.9194 37.4213 24.3027C37.4213 24.686 37.7319 24.9966 38.1152 24.9966H40.8909C41.2742 24.9966 41.5849 24.686 41.5849 24.3027C41.5849 23.9194 41.2742 23.6088 40.8909 23.6088H38.1152ZM23.1955 36.7936V38.1815H30.8288V36.7936H23.1955ZM23.1955 39.5693C23.1955 40.3667 23.8511 40.9572 24.5834 40.9572H29.441C30.1732 40.9572 30.8288 40.3667 30.8288 39.5693H23.1955ZM25.6243 41.6512C25.6243 42.42 26.2433 43.039 27.0122 43.039C27.7811 43.039 28.4 42.42 28.4 41.6512H25.6243Z" fill="#0085DE"/>
</svg>
