<svg width="53" height="53" viewBox="0 0 53 53" fill="none" xmlns="http://www.w3.org/2000/svg">
<circle cx="26.631" cy="26.7667" r="25.7941" fill="white"/>
<path d="M35.6329 14.3472V36.702C35.6329 38.0781 36.7115 39.1859 38.0513 39.1859H16.6304C15.2906 39.1859 14.2119 38.0781 14.2119 36.702V14.3472H35.6329ZM32.1779 17.8956H25.2679V22.8633H32.1779V17.8956ZM21.8129 17.8956H17.6669C17.2853 17.8956 16.9759 18.2133 16.9759 18.6052C16.9759 18.9972 17.2853 19.3149 17.6669 19.3149H21.8129C22.1945 19.3149 22.5039 18.9972 22.5039 18.6052C22.5039 18.2133 22.1945 17.8956 21.8129 17.8956ZM40.6311 20.5687V35.8268C40.6311 36.8219 39.8726 37.601 38.9036 37.601C37.9346 37.601 37.1761 36.8219 37.1761 35.8268V20.5687H40.6311ZM21.8129 21.4439H17.6669C17.2853 21.4439 16.9759 21.7617 16.9759 22.1536C16.9759 22.5456 17.2853 22.8633 17.6669 22.8633H21.8129C22.1945 22.8633 22.5039 22.5456 22.5039 22.1536C22.5039 21.7617 22.1945 21.4439 21.8129 21.4439ZM32.1779 25.702H17.6669C17.2853 25.702 16.9759 26.0197 16.9759 26.4117C16.9759 26.8036 17.2853 27.1214 17.6669 27.1214H32.1779C32.5595 27.1214 32.8689 26.8036 32.8689 26.4117C32.8689 26.0197 32.5595 25.702 32.1779 25.702ZM32.1779 29.9601H28.0319C27.6502 29.9601 27.3409 30.2778 27.3409 30.6698C27.3409 31.0617 27.6502 31.3794 28.0319 31.3794H32.1779C32.5595 31.3794 32.8689 31.0617 32.8689 30.6698C32.8689 30.2778 32.5595 29.9601 32.1779 29.9601ZM25.2679 29.9601H18.3579V34.9278H25.2679V29.9601ZM32.1779 33.5085H28.0319C27.6502 33.5085 27.3409 33.8262 27.3409 34.2182C27.3409 34.6101 27.6502 34.9278 28.0319 34.9278H32.1779C32.5595 34.9278 32.8689 34.6101 32.8689 34.2182C32.8689 33.8262 32.5595 33.5085 32.1779 33.5085Z" fill="#00BDD9"/>
</svg>
