<svg width="53" height="53" viewBox="0 0 53 53" fill="none" xmlns="http://www.w3.org/2000/svg">
<circle cx="26.255" cy="26.7623" r="25.7941" fill="white"/>
<path d="M26.7326 21.0303C23.309 21.0303 20.5229 23.8163 20.5229 27.24C20.5229 30.6636 23.309 33.4496 26.7326 33.4496C30.1563 33.4496 32.9423 30.6636 32.9423 27.24C32.9423 23.8163 30.1563 21.0303 26.7326 21.0303ZM30.9082 26.093L26.4727 30.5285C26.2995 30.7017 26.0724 30.7883 25.8455 30.7883C25.6187 30.7883 25.3916 30.7017 25.2183 30.5285L22.557 27.8672C22.2105 27.5206 22.2105 26.9593 22.557 26.6128C22.9036 26.2662 23.4649 26.2662 23.8114 26.6128L25.8455 28.6468L29.6538 24.8386C30.0003 24.492 30.5617 24.492 30.9082 24.8386C31.2547 25.1851 31.2547 25.7464 30.9082 26.093Z" fill="#FF84BF"/>
<path d="M36.8737 15.9605H34.8939C32.0366 15.9605 29.3503 14.7605 27.33 12.6863C26.9999 12.3474 26.4651 12.3474 26.1349 12.6863C24.1146 14.7605 21.4283 15.9605 18.571 15.9605H16.5912C16.124 15.9605 15.7461 16.3485 15.7461 16.8282V27.2398C15.7461 35.0366 21.2723 38.6633 24.9291 41.0247C25.2634 41.24 26.3766 42.0475 26.7325 42.0475C27.0874 42.0475 28.1711 41.2608 28.5043 41.0459C32.1737 38.683 37.7188 35.0527 37.7188 27.2398V16.8282C37.7188 16.3485 37.3407 15.9605 36.8737 15.9605ZM26.7325 35.0486C22.5382 35.0486 19.1265 31.5457 19.1265 27.2398C19.1265 22.9337 22.5382 19.4311 26.7325 19.4311C30.9265 19.4311 34.3384 22.9337 34.3384 27.2398C34.3384 31.5457 30.9265 35.0486 26.7325 35.0486Z" fill="#FF84BF"/>
</svg>
