<svg width="45" height="46" viewBox="0 0 45 46" fill="none" xmlns="http://www.w3.org/2000/svg">
<circle cx="22.5626" cy="23.0572" r="22.1139" fill="#FF4A31"/>
<path d="M26.0722 14.6348H23.6151L19.4038 17.7931H21.8609L26.0722 14.6348Z" fill="white"/>
<path d="M30.3186 14.6348H27.8265L23.6152 17.7931H26.0723L30.3186 14.6348Z" fill="white"/>
<path d="M27.8262 17.7928H31.5463V15.1608C31.5463 15.1202 31.5319 15.0844 31.5233 15.0464L27.8262 17.7928Z" fill="white"/>
<path d="M15.1577 17.7931H17.6499L21.8613 14.6348H19.4041L15.1577 17.7931Z" fill="white"/>
<path d="M13.5786 30.9527C13.5786 31.2437 13.8141 31.4791 14.105 31.4791H31.0197C31.3107 31.4791 31.5461 31.2437 31.5461 30.9527V18.8457H13.5786V30.9527ZM19.9304 21.4777C19.9304 21.288 20.0322 21.1132 20.1972 21.0196C20.3623 20.9261 20.5648 20.9286 20.7277 21.0263L25.9916 24.1847C26.15 24.2798 26.2471 24.4509 26.2471 24.636C26.2471 24.821 26.1499 24.9922 25.9916 25.0873L20.7277 28.2457C20.5647 28.3433 20.3621 28.3458 20.1972 28.2523C20.0322 28.1588 19.9304 27.984 19.9304 27.7944V21.4777Z" fill="white"/>
<path d="M14.105 14.6353C13.8141 14.6353 13.5786 14.8707 13.5786 15.1616V17.6623L17.6499 14.6353H14.105Z" fill="white"/>
</svg>
