<svg width="53" height="53" viewBox="0 0 53 53" fill="none" xmlns="http://www.w3.org/2000/svg">
<circle cx="26.4269" cy="26.7626" r="25.7941" fill="white"/>
<path d="M37.9688 30.743C37.9688 30.2837 37.8613 29.845 37.6674 29.4436C37.6474 29.3416 37.6245 29.2397 37.596 29.1364L35.4952 24.1096L35.481 24.0644C34.7459 21.9512 33.7001 19.9955 31.0481 19.9955H20.9086C18.1913 19.9955 17.231 21.9997 16.4799 24.0526L14.2825 29.0917C13.9648 29.5831 13.7842 30.1453 13.7842 30.743V32.3072C13.7842 32.549 13.8138 32.7856 13.8701 33.0134C13.8154 33.1511 13.7842 33.2994 13.7842 33.4558V38.1081C13.7842 38.7903 14.357 39.3434 15.0635 39.3434H17.7184C18.4246 39.3434 18.9974 38.7903 18.9974 38.1081V35.7816H32.9072V38.1081C32.9072 38.7903 33.4801 39.3434 34.1867 39.3434H36.6896C37.3964 39.3434 37.9691 38.7903 37.9691 38.1081V33.4553C37.9691 33.2995 37.9376 33.1505 37.8833 33.0133C37.9394 32.785 37.9691 32.5487 37.9691 32.307L37.9688 30.743ZM18.039 24.5573C18.8755 22.2786 19.5482 21.583 20.9086 21.583H31.0475C32.3979 21.583 33.1499 22.3589 33.914 24.5475L35.447 27.547C34.9464 27.3681 34.3956 27.2687 33.8168 27.2687H17.9361C17.415 27.2687 16.917 27.3497 16.4576 27.4961L18.039 24.5573ZM19.3559 32.9012H16.5547C16.0504 32.9012 15.6414 32.5059 15.6414 32.019C15.6414 31.532 16.0504 31.1369 16.5547 31.1369H19.3559C19.8605 31.1369 20.2695 31.532 20.2695 32.019C20.2695 32.5059 19.8602 32.9012 19.3559 32.9012ZM29.2512 32.7245H22.7356C22.4161 32.7245 22.1573 32.4745 22.1573 32.1662C22.1573 31.8573 22.4161 31.6073 22.7356 31.6073H29.2512C29.5711 31.6073 29.8299 31.8573 29.8299 32.1662C29.8299 32.4745 29.5711 32.7245 29.2512 32.7245ZM35.1276 32.9012H32.3265C31.8217 32.9012 31.4129 32.5059 31.4129 32.019C31.4129 31.532 31.822 31.1369 32.3265 31.1369H35.1276C35.6324 31.1369 36.0415 31.532 36.0415 32.019C36.0415 32.5059 35.6324 32.9012 35.1276 32.9012Z" fill="#FF9C29"/>
<path d="M40.2491 22.388L40.2518 22.3854C42.977 19.6556 42.977 15.265 40.2518 12.5353C37.526 9.80517 33.1412 9.80517 30.4155 12.5353C27.8569 15.098 27.6953 19.1453 29.9694 21.8788C29.7395 22.2647 29.4331 22.6311 29.0229 22.829C28.6597 22.9917 28.5606 23.3575 28.6015 23.6239C28.6408 23.8799 28.834 24.199 29.2161 24.2582C30.0115 24.3952 31.0576 24.2728 32.0797 23.6144C34.6971 24.9869 38.0191 24.5883 40.2491 22.388ZM36.1316 14.4971L36.1308 14.5109V14.5248C36.1308 14.8269 35.8735 15.0835 35.5738 15.0835C35.2784 15.0835 35.0241 14.8341 35.017 14.5375C35.0415 14.1952 35.3049 13.9661 35.6059 13.9661C35.9114 13.9661 36.1469 14.2219 36.1316 14.4971Z" fill="#FF9C29" stroke="white"/>
</svg>
