<svg width="53" height="53" viewBox="0 0 53 53" fill="none" xmlns="http://www.w3.org/2000/svg">
<circle cx="26.59" cy="26.7668" r="25.7941" fill="white"/>
<g clip-path="url(#clip0_633_14)">
<path d="M25.9758 24.2781C25.9758 23.8251 26.343 23.4579 26.796 23.4579C27.249 23.4579 27.6162 23.8251 27.6162 24.2781V30.4814C30.1219 30.6258 32.5026 31.4299 34.5563 32.8113C35.1115 31.7775 35.4517 30.6456 35.5601 29.4726H34.6698C34.2169 29.4726 33.8497 29.1054 33.8497 28.6524C33.8497 28.1994 34.2169 27.8322 34.6698 27.8322H35.5608C35.4671 26.823 35.2026 25.8627 34.7961 24.9806L34.025 25.4258C33.6353 25.651 33.1326 25.5205 32.9046 25.1257C32.6782 24.7333 32.8126 24.2317 33.2048 24.0053L33.9741 23.5612C33.4002 22.7545 32.694 22.0483 31.8873 21.4745L31.4432 22.2436C31.2913 22.5067 31.0156 22.6539 30.7322 22.6539C30.1082 22.6539 29.7051 21.9735 30.0227 21.4234L30.4678 20.6524C29.5857 20.2459 28.6254 19.9813 27.6162 19.8877V20.7787C27.6162 21.2316 27.249 21.5988 26.796 21.5988C26.3431 21.5988 25.9759 21.2316 25.9759 20.7787V19.8877C24.9666 19.9813 24.0064 20.2459 23.1243 20.6524L23.5694 21.4234C23.8866 21.9728 23.4847 22.6539 22.8599 22.6539C22.5764 22.6539 22.3008 22.5068 22.1489 22.2436L21.7048 21.4745C20.8981 22.0483 20.1918 22.7545 19.618 23.5612L20.3873 24.0053C20.7795 24.2318 20.9139 24.7333 20.6875 25.1257C20.4606 25.5185 19.9588 25.6521 19.5671 25.4258L18.796 24.9806C18.3895 25.8628 18.1249 26.823 18.0312 27.8322H18.9222C19.3752 27.8322 19.7424 28.1994 19.7424 28.6524C19.7424 29.1054 19.3752 29.4726 18.9222 29.4726H18.0319C18.1403 30.6456 18.4805 31.7775 19.0358 32.8113C21.0894 31.4299 23.4702 30.6258 25.9759 30.4814V24.2781H25.9758Z" fill="#00BDD9"/>
<path d="M17.717 33.8168C14.9402 28.9493 16.4949 22.5943 21.5232 19.6408C24.6286 17.7911 28.7025 17.6721 32.0687 19.6408C37.0591 22.572 38.6752 28.908 35.8749 33.8168C36.8013 34.614 37.6159 35.5211 38.3059 36.5251C42.2653 30.7806 41.3406 23.4237 36.6826 18.7657C31.1982 13.2813 22.3953 13.2796 16.9092 18.7657C12.2505 23.4244 11.3271 30.7814 15.286 36.5251C15.9753 35.5221 16.7897 34.6148 17.717 33.8168Z" fill="#00BDD9"/>
<path d="M36.869 37.3451C31.9576 30.3535 21.637 30.3473 16.7217 37.3464C31.1887 37.3465 35.5425 37.3511 36.869 37.3451Z" fill="#00BDD9"/>
</g>
<defs>
<clipPath id="clip0_633_14">
<rect width="28" height="28" fill="white" transform="translate(12.7959 12)"/>
</clipPath>
</defs>
</svg>
