<svg width="52" height="53" viewBox="0 0 52 53" fill="none" xmlns="http://www.w3.org/2000/svg">
<circle cx="26.0509" cy="26.7668" r="25.7941" fill="white"/>
<path d="M34.3952 29.4533C33.3244 30.7997 31.5899 31.6766 29.6356 31.6766H26.8934C25.9461 31.6766 25.1394 31.1261 24.834 30.3554C24.4569 30.2525 24.0872 30.1188 23.7263 29.9547C22.9622 29.6071 22.2684 29.1362 21.6577 28.5529C17.696 29.3497 14.731 32.5815 14.731 36.4477V36.9531C14.731 37.6478 15.3461 38.2109 16.1049 38.2109H37.4223C38.1811 38.2109 38.7962 37.6478 38.7962 36.9531V36.4477C38.7962 33.461 37.0266 30.8529 34.3952 29.4533Z" fill="#FF84BF"/>
<path d="M20.1973 25.9603C20.7878 25.9603 21.3018 25.6607 21.5681 25.2185C21.5751 25.236 21.5822 25.2534 21.5894 25.2708C21.5915 25.276 21.5936 25.2812 21.5957 25.2864C22.2204 26.7918 23.4359 28.0538 25.0387 28.6051C25.4264 28.0413 26.1118 27.6662 26.8934 27.6662H29.6356C29.9091 27.6662 30.1637 27.5956 30.3868 27.4814C30.7616 27.2895 31.0987 26.8027 31.2728 26.5447C31.5513 26.1319 31.7671 25.6945 31.9584 25.2177C32.066 25.3965 32.2139 25.552 32.391 25.6739V26.2895C32.391 27.6805 31.1549 28.8122 29.6355 28.8122H26.8933C26.3749 28.8122 25.9546 29.1969 25.9546 29.6715C25.9546 30.1462 26.3749 30.5309 26.8933 30.5309H29.6355C32.1901 30.5309 34.2684 28.6282 34.2684 26.2895V25.6739C34.6484 25.4126 34.8942 24.9966 34.8942 24.528V21.9368V20.9431C34.8942 20.4649 34.638 20.0418 34.2447 19.7816C33.9396 16.2475 30.7009 13.4571 26.7635 13.4571C22.8261 13.4571 19.5874 16.2475 19.2823 19.7816C18.889 20.0417 18.6328 20.4649 18.6328 20.943V24.5279C18.6328 25.3212 19.3367 25.9603 20.1973 25.9603ZM26.7635 15.1759C29.6783 15.1759 32.0824 17.2152 32.3634 19.8171C32.1789 19.95 32.0278 20.1198 31.9237 20.3146C31.0379 18.199 29.0607 16.726 26.7634 16.726C24.4167 16.726 22.4711 18.2496 21.6067 20.3061C21.6055 20.3089 21.6044 20.3118 21.6032 20.3146C21.4991 20.1198 21.348 19.95 21.1635 19.8172C21.4447 17.2152 23.8488 15.1759 26.7635 15.1759Z" fill="#FF84BF"/>
</svg>
