<svg width="52" height="53" viewBox="0 0 52 53" fill="none" xmlns="http://www.w3.org/2000/svg">
<circle cx="26.0509" cy="26.7668" r="25.7941" fill="white"/>
<path d="M16 21.539V26H32.189L33.585 24.605C34.025 24.166 34.743 24.166 35.182 24.605L36.578 26H38.077V28H36.577L35.183 29.394C34.743 29.834 34.025 29.834 33.586 29.394L32.191 28H16V32.462H17.42L18.817 31.066C19.257 30.627 19.975 30.627 20.414 31.066L21.811 32.462H38.077V34.462H21.808L20.413 35.856C19.974 36.296 19.256 36.296 18.817 35.856L17.422 34.462H16V39H14.077H14V15H14.077H16V19.539H22.958L24.354 18.143C24.794 17.704 25.512 17.704 25.951 18.143L27.348 19.539H38.077V21.539H27.347L25.952 22.933C25.513 23.373 24.795 23.373 24.356 22.933L22.96 21.539H16Z" fill="#0085DE"/>
</svg>
