<svg width="53" height="53" viewBox="0 0 53 53" fill="none" xmlns="http://www.w3.org/2000/svg">
<circle cx="26.4269" cy="26.7668" r="25.7941" fill="white"/>
<path d="M24.6539 25.1458C24.1552 24.7358 23.3743 24.7313 22.85 25.3588L22.3426 25.9635L21.6879 25.4379C21.1469 24.994 20.3546 25.0777 19.9162 25.6122C19.4762 26.1486 19.5547 26.9433 20.0911 27.3839L22.6961 29.5014L24.8288 26.9163C25.2677 26.3794 25.1898 25.5853 24.6539 25.1458Z" fill="#46C6A4"/>
<path d="M31.8643 35.3097C31.5021 31.6327 30.8126 24.6297 29.7644 14L12.7383 15.6775L14.8376 36.9872C22.9834 36.1849 19.1066 36.5669 31.8643 35.3097Z" fill="#46C6A4"/>
<path d="M31.7655 17.8553C33.681 37.2942 33.4025 34.4701 33.6286 36.7575C31.623 36.9549 33.803 36.7402 21.1491 37.9869L21.1157 38.3226L38.1424 40.0001L40.2417 18.6903L31.7655 17.8553Z" fill="#46C6A4"/>
<path d="M27.3169 25.8417C27.2548 25.2653 26.831 24.8116 26.2857 24.6614L25.2938 22.8524C24.8603 22.0616 23.9811 21.6148 23.0538 21.7147L20.7648 21.9613C19.8376 22.0612 19.0738 22.685 18.8186 23.55L18.2348 25.5288C17.734 25.7917 17.4166 26.3252 17.4787 26.9016L17.7123 29.0698C17.7827 29.7235 18.3898 30.1933 19.0694 30.12C19.7491 30.0468 20.2422 29.4585 20.1718 28.8049L20.1293 28.4106L25.0484 27.8807L25.0909 28.2749C25.1613 28.9285 25.7684 29.3983 26.4481 29.3251C27.1277 29.2519 27.6209 28.6636 27.5505 28.0099L27.3169 25.8417ZM20.8922 23.144L23.1813 22.8974C23.6027 22.852 24.0028 23.0553 24.1999 23.4145L24.9071 24.7055L19.5903 25.2782L20.0072 23.8662C20.1232 23.4733 20.4708 23.1894 20.8922 23.144Z" fill="white"/>
<ellipse cx="19.4532" cy="26.7553" rx="0.659675" ry="0.660852" transform="rotate(-6.14895 19.4532 26.7553)" fill="#46C6A4"/>
<ellipse cx="25.3561" cy="26.1193" rx="0.659675" ry="0.660852" transform="rotate(-6.14895 25.3561 26.1193)" fill="#46C6A4"/>
</svg>
