<svg width="53" height="53" viewBox="0 0 53 53" fill="none" xmlns="http://www.w3.org/2000/svg">
<circle cx="26.6547" cy="26.7941" r="26.1903" fill="white"/>
<path d="M36.1684 32.1405C35.2695 32.1405 34.5407 32.8692 34.5407 33.7681V32.5489C34.5407 31.65 33.8121 30.9213 32.9132 30.9213C32.0144 30.9213 31.2857 31.65 31.2857 32.5489V31.3297C31.2857 30.4308 30.557 29.7021 29.6581 29.7021C28.7592 29.7021 28.0306 30.4308 28.0306 31.3297V26.6882C28.0306 25.7893 27.3018 25.0606 26.4029 25.0606C25.504 25.0606 24.7753 25.7892 24.7753 26.6882V35.794L23.1701 34.1889C22.5345 33.5532 21.5039 33.5532 20.8683 34.1889C20.2327 34.8245 20.2327 35.855 20.8683 36.4907L22.6106 38.233C23.2987 38.9211 23.79 39.781 24.0333 40.7232C24.7966 43.6792 27.4629 45.7445 30.5159 45.7445H30.7712C34.6509 45.7445 37.796 42.5994 37.796 38.7198V37.3396V33.7681C37.796 32.8692 37.0673 32.1405 36.1684 32.1405Z" fill="#FF4A31"/>
<path d="M18.4657 16.2711C16.9935 16.2711 15.7959 17.4906 15.7959 18.9895C15.7959 20.4883 16.9935 21.7077 18.4657 21.7077C19.9378 21.7077 21.1354 20.4883 21.1354 18.9895C21.1354 17.4906 19.9377 16.2711 18.4657 16.2711Z" fill="#FF4A31"/>
<path d="M26.0492 16.2706C24.5771 16.2706 23.3794 17.49 23.3794 18.9889C23.3794 20.4877 24.5771 21.707 26.0492 21.707C27.5213 21.707 28.7189 20.4876 28.7189 18.9889C28.7189 17.49 27.5213 16.2706 26.0492 16.2706Z" fill="#FF4A31"/>
<path d="M33.6336 16.2705C32.1615 16.2705 30.9639 17.49 30.9639 18.9889C30.9638 20.4878 32.1614 21.7071 33.6336 21.7071C35.1057 21.7071 36.3033 20.4878 36.3033 18.9889C36.3033 17.49 35.1056 16.2705 33.6336 16.2705Z" fill="#FF4A31"/>
<path d="M33.6336 23.8548C32.1615 23.8548 30.9639 25.0743 30.9639 26.5731C30.9638 28.072 32.1614 29.2914 33.6336 29.2914C35.1057 29.2914 36.3033 28.072 36.3033 26.5731C36.3033 25.0743 35.1056 23.8548 33.6336 23.8548Z" fill="#FF4A31"/>
<path d="M18.4651 23.8548C16.993 23.8548 15.7954 25.0743 15.7954 26.5731C15.7954 28.072 16.9931 29.2914 18.4651 29.2914C19.9372 29.2914 21.1348 28.072 21.1348 26.5731C21.1348 25.0743 19.9372 23.8548 18.4651 23.8548Z" fill="#FF4A31"/>
</svg>
